<svg width="36" height="36" viewBox="0 0 36 36" fill="none" xmlns="http://www.w3.org/2000/svg">
<path d="M18 0C27.9411 0 36 8.05887 36 18C36 27.9411 27.9411 36 18 36C8.05887 36 0 27.9411 0 18C0 8.05887 8.05887 0 18 0ZM20.3828 21.79C19.6909 22.4499 18.7715 22.8183 17.8154 22.8184C16.8593 22.8184 15.9399 22.4499 15.248 21.79L14.124 20.666L12.9795 21.79C12.6436 22.1269 12.2443 22.3943 11.8047 22.5762C11.365 22.758 10.8937 22.8507 10.418 22.8496C9.68329 22.8484 8.96617 22.6256 8.36035 22.21V27.0498C8.36114 27.328 8.47123 27.5953 8.66797 27.792C8.86471 27.9887 9.13194 28.0988 9.41016 28.0996H26.21C26.488 28.0988 26.7545 27.9885 26.9512 27.792C27.1479 27.5953 27.259 27.328 27.2598 27.0498V22.21C26.6541 22.626 25.9369 22.849 25.2021 22.8506C24.7262 22.8516 24.2542 22.7583 23.8145 22.5762C23.3749 22.3941 22.9754 22.1271 22.6396 21.79L21.5156 20.666L20.3828 21.79ZM16.7598 14.4502H11.5098C11.096 14.4497 10.6861 14.5304 10.3037 14.6885C9.92136 14.8466 9.57383 15.0786 9.28125 15.3711C8.98873 15.6636 8.75675 16.0113 8.59863 16.3936C8.44057 16.7758 8.35988 17.1859 8.36035 17.5996V19.2168C8.36115 19.7623 8.57812 20.2851 8.96387 20.6709C9.34965 21.0567 9.8724 21.2746 10.418 21.2754C10.6873 21.2773 10.9543 21.2251 11.2031 21.1221C11.452 21.019 11.678 20.8666 11.8672 20.6748L14.1143 18.4385L16.3506 20.6748C16.7424 21.049 17.2639 21.2578 17.8057 21.2578C18.3473 21.2577 18.868 21.0489 19.2598 20.6748L21.5068 18.4385L23.7441 20.6748C23.9339 20.8657 24.1595 21.0171 24.4082 21.1201C24.6568 21.2231 24.9233 21.2762 25.1924 21.2754C25.738 21.2746 26.2617 21.0567 26.6475 20.6709C27.033 20.2852 27.2502 19.7622 27.251 19.2168V17.5996C27.2536 17.1861 27.1743 16.7762 27.0176 16.3936C26.8608 16.0108 26.629 15.663 26.3369 15.3701C26.0449 15.0773 25.6977 14.8444 25.3154 14.6865C24.9334 14.5288 24.5237 14.4488 24.1104 14.4502H18.8604V12.3496H16.7598V14.4502ZM16.0098 8.11914C15.8086 8.44373 15.7046 8.81932 15.71 9.20117C15.7119 9.7574 15.9337 10.2904 16.3271 10.6836C16.7205 11.0767 17.2534 11.2981 17.8096 11.2998C18.3665 11.2998 18.9011 11.0784 19.2949 10.6846C19.6886 10.2908 19.9101 9.75696 19.9102 9.2002C19.9155 8.81841 19.8115 8.44271 19.6104 8.11816L17.8096 5L16.0098 8.11914Z" fill="#E51950"/>
</svg>
