<svg width="36" height="36" viewBox="0 0 36 36" fill="none" xmlns="http://www.w3.org/2000/svg">
<path d="M18 36C27.9411 36 36 27.9411 36 18C36 8.05887 27.9411 0 18 0C8.05887 0 0 8.05887 0 18C0 27.9411 8.05887 36 18 36Z" fill="#0E8D6A"/>
<path d="M26.5349 12.03C26.6675 12.03 26.7947 11.9773 26.8884 11.8835C26.9822 11.7898 27.0349 11.6626 27.0349 11.53V10.522C27.0349 10.3894 26.9822 10.2622 26.8884 10.1684C26.7947 10.0747 26.6675 10.022 26.5349 10.022H9.46289C9.33028 10.022 9.20311 10.0747 9.10934 10.1684C9.01557 10.2622 8.96289 10.3894 8.96289 10.522V11.522C8.96289 11.6546 9.01557 11.7818 9.10934 11.8755C9.20311 11.9693 9.33028 12.022 9.46289 12.022H9.96289V24.079H9.46289C9.33028 24.079 9.20311 24.1317 9.10934 24.2254C9.01557 24.3192 8.96289 24.4464 8.96289 24.579V25.579C8.96289 25.6446 8.97582 25.7097 9.00095 25.7703C9.02608 25.831 9.06291 25.8861 9.10934 25.9325C9.15577 25.979 9.21089 26.0158 9.27155 26.0409C9.33221 26.066 9.39723 26.079 9.46289 26.079H16.9959V23.569C16.9959 23.4364 17.0486 23.3092 17.1423 23.2154C17.2361 23.1217 17.3633 23.069 17.4959 23.069H18.4959C18.6285 23.069 18.7557 23.1217 18.8494 23.2154C18.9432 23.3092 18.9959 23.4364 18.9959 23.569V26.079H26.5269C26.6595 26.079 26.7867 26.0263 26.8804 25.9325C26.9742 25.8388 27.0269 25.7116 27.0269 25.579V24.579C27.0269 24.4464 26.9742 24.3192 26.8804 24.2254C26.7867 24.1317 26.6595 24.079 26.5269 24.079H26.0269V12.03H26.5349ZM16.9959 13.436C17.0033 13.3323 17.0478 13.2349 17.1213 13.1614C17.1948 13.0879 17.2923 13.0434 17.3959 13.036H18.5959C18.6995 13.0434 18.797 13.0879 18.8705 13.1614C18.9439 13.2349 18.9885 13.3323 18.9959 13.436V14.636C18.9885 14.7396 18.9439 14.8371 18.8705 14.9105C18.797 14.984 18.6995 15.0285 18.5959 15.036H17.3959C17.2923 15.0285 17.1948 14.984 17.1213 14.9105C17.0478 14.8371 17.0033 14.7396 16.9959 14.636V13.436ZM16.9959 16.448C17.0033 16.3443 17.0478 16.2469 17.1213 16.1734C17.1948 16.0999 17.2923 16.0554 17.3959 16.048H18.5959C18.6995 16.0554 18.797 16.0999 18.8705 16.1734C18.9439 16.2469 18.9885 16.3443 18.9959 16.448V17.648C18.9885 17.7516 18.9439 17.8491 18.8705 17.9225C18.797 17.996 18.6995 18.0405 18.5959 18.048H17.3959C17.2923 18.0405 17.1948 17.996 17.1213 17.9225C17.0478 17.8491 17.0033 17.7516 16.9959 17.648V16.448ZM12.9789 13.436C12.9863 13.3323 13.0308 13.2349 13.1043 13.1614C13.1778 13.0879 13.2753 13.0434 13.3789 13.036H14.5789C14.6825 13.0434 14.78 13.0879 14.8535 13.1614C14.9269 13.2349 14.9715 13.3323 14.9789 13.436V14.636C14.9715 14.7396 14.9269 14.8371 14.8535 14.9105C14.78 14.984 14.6825 15.0285 14.5789 15.036H13.3789C13.2753 15.0285 13.1778 14.984 13.1043 14.9105C13.0308 14.8371 12.9863 14.7396 12.9789 14.636V13.436ZM14.5859 18.055H13.3859C13.2823 18.0475 13.1848 18.003 13.1113 17.9295C13.0378 17.8561 12.9933 17.7586 12.9859 17.655V16.455C12.9933 16.3513 13.0378 16.2539 13.1113 16.1804C13.1848 16.1069 13.2823 16.0624 13.3859 16.055H14.5859C14.6895 16.0624 14.787 16.1069 14.8605 16.1804C14.9339 16.2539 14.9785 16.3513 14.9859 16.455V17.655C14.9785 17.7586 14.9339 17.8561 14.8605 17.9295C14.787 18.003 14.6895 18.0475 14.5859 18.055ZM14.9859 22.071C14.9859 21.272 15.3033 20.5058 15.8682 19.9408C16.4332 19.3759 17.1994 19.0585 17.9984 19.0585C18.7974 19.0585 19.5636 19.3759 20.1285 19.9408C20.6935 20.5058 21.0109 21.272 21.0109 22.071H14.9859ZM23.0189 17.653C23.0115 17.7566 22.9669 17.8541 22.8935 17.9275C22.82 18.001 22.7225 18.0455 22.6189 18.053H21.4189C21.3153 18.0455 21.2178 18.001 21.1443 17.9275C21.0708 17.8541 21.0263 17.7566 21.0189 17.653V16.453C21.0263 16.3493 21.0708 16.2519 21.1443 16.1784C21.2178 16.1049 21.3153 16.0604 21.4189 16.053H22.6189C22.7225 16.0604 22.82 16.1049 22.8935 16.1784C22.9669 16.2519 23.0115 16.3493 23.0189 16.453V17.653ZM23.0189 14.641C23.0115 14.7446 22.9669 14.8421 22.8935 14.9155C22.82 14.989 22.7225 15.0335 22.6189 15.041H21.4189C21.3153 15.0335 21.2178 14.989 21.1443 14.9155C21.0708 14.8421 21.0263 14.7446 21.0189 14.641V13.441C21.0263 13.3373 21.0708 13.2399 21.1443 13.1664C21.2178 13.0929 21.3153 13.0484 21.4189 13.041H22.6189C22.7225 13.0484 22.82 13.0929 22.8935 13.1664C22.9669 13.2399 23.0115 13.3373 23.0189 13.441V14.641Z" fill="white"/>
</svg>
