<svg width="36" height="36" viewBox="0 0 36 36" fill="none" xmlns="http://www.w3.org/2000/svg">
<path d="M18 0C27.9411 0 36 8.05887 36 18C36 27.9411 27.9411 36 18 36C8.05887 36 0 27.9411 0 18C0 8.05887 8.05887 0 18 0ZM9.5 8C9.22386 8 9 8.22386 9 8.5V16.7598C9.0007 17.5551 9.31719 18.3178 9.87988 18.8799L10.71 19.71C10.8962 19.8947 11.1478 19.9989 11.4102 20H12V27.5C12 27.7761 12.2239 28 12.5 28H13.5C13.7761 28 14 27.7761 14 27.5V20H14.5898C14.8522 19.9989 15.1038 19.8947 15.29 19.71L16.1201 18.8799C16.6828 18.3178 16.9993 17.5551 17 16.7598V8.5C17 8.22386 16.7761 8 16.5 8H15.75C15.4739 8 15.25 8.22386 15.25 8.5V15.5C15.25 15.7761 15.0261 16 14.75 16H14.3799C14.1038 15.9999 13.8799 15.7761 13.8799 15.5V8.5C13.8799 8.22386 13.656 8 13.3799 8H12.6201C12.344 8 12.1201 8.22386 12.1201 8.5V15.5C12.1201 15.7761 11.8962 15.9999 11.6201 16H11.25C10.9739 16 10.75 15.7761 10.75 15.5V8.5C10.75 8.22386 10.5261 8 10.25 8H9.5ZM24 8C21.7909 8 20 9.79086 20 12V19C20 19.5523 20.4477 20 21 20H23V27.5C23 27.7761 23.2239 28 23.5 28H24.5C24.7761 28 25 27.7761 25 27.5V8.5C25 8.22386 24.7761 8 24.5 8H24Z" fill="#8D5E0E"/>
</svg>
