<svg width="36" height="36" viewBox="0 0 36 36" fill="none" xmlns="http://www.w3.org/2000/svg">
<path d="M18 0C27.9411 0 36 8.05887 36 18C36 27.9411 27.9411 36 18 36C8.05887 36 0 27.9411 0 18C0 8.05887 8.05887 0 18 0ZM14.9131 7.04492C14.7666 7.04498 14.6236 7.09033 14.5039 7.1748C14.3842 7.25944 14.2931 7.37942 14.2441 7.51758C13.4124 9.57184 12.8756 11.7338 12.6494 13.9385V14.1855C12.5958 14.8926 12.6986 15.6031 12.9512 16.2656C13.2037 16.9282 13.5997 17.5266 14.1104 18.0186C14.4759 18.3746 14.8621 18.7087 15.2676 19.0186C16.2505 19.8055 17.2673 20.6187 17.2676 21.6016V27.5215C17.2676 27.548 17.257 27.574 17.2383 27.5928C17.2196 27.6113 17.1943 27.6221 17.168 27.6221H14.2236C14.0327 27.6222 13.8499 27.6981 13.7148 27.833C13.5797 27.9681 13.5039 28.1517 13.5039 28.3428C13.504 28.5337 13.5798 28.7165 13.7148 28.8516C13.8499 28.9866 14.0327 29.0624 14.2236 29.0625H21.7773C21.9683 29.0624 22.1511 28.9866 22.2861 28.8516C22.4212 28.7165 22.497 28.5337 22.4971 28.3428C22.4971 28.1517 22.4213 27.9681 22.2861 27.833C22.1511 27.6981 21.9682 27.6222 21.7773 27.6221H18.8389C18.8125 27.622 18.7873 27.6114 18.7686 27.5928C18.7498 27.574 18.7393 27.548 18.7393 27.5215V21.6055C18.7396 20.6227 19.7534 19.8053 20.7393 19.0225C21.1437 18.7113 21.5307 18.3773 21.8975 18.0225C22.4079 17.5306 22.8032 16.9319 23.0557 16.2695C23.3082 15.607 23.412 14.8965 23.3584 14.1895V13.9385C23.1297 11.733 22.5881 9.57083 21.751 7.51758C21.7035 7.37944 21.6141 7.25957 21.4951 7.1748C21.376 7.08997 21.2331 7.04454 21.0869 7.04492H14.9131ZM20.4922 8.48633C20.5145 8.48547 20.5366 8.49186 20.5547 8.50488C20.5726 8.51785 20.5855 8.53642 20.5918 8.55762C21.0328 9.91282 21.404 11.2902 21.7031 12.6836C21.7059 12.6991 21.7053 12.7153 21.7012 12.7305C21.697 12.7457 21.689 12.7595 21.6787 12.7715C21.6688 12.7834 21.6567 12.7936 21.6426 12.7998C21.6283 12.8061 21.6122 12.8084 21.5967 12.8076H14.4043C14.3737 12.8051 14.3448 12.7923 14.3223 12.7715C14.3123 12.7596 14.3044 12.7455 14.3008 12.7305C14.2973 12.7155 14.2973 12.6995 14.3008 12.6846C14.5943 11.2895 14.9656 9.91154 15.4121 8.55762C15.4198 8.5372 15.4335 8.51959 15.4512 8.50684C15.4689 8.49409 15.4899 8.48717 15.5117 8.48633H20.4922Z" fill="#CCAF39"/>
</svg>
